<?xml version="1.0" encoding="UTF-8" standalone="no"?>
<svg
   xmlns:dc="http://purl.org/dc/elements/1.1/"
   xmlns:cc="http://creativecommons.org/ns#"
   xmlns:rdf="http://www.w3.org/1999/02/22-rdf-syntax-ns#"
   xmlns:svg="http://www.w3.org/2000/svg"
   xmlns="http://www.w3.org/2000/svg"
   xmlns:sodipodi="http://sodipodi.sourceforge.net/DTD/sodipodi-0.dtd"
   xmlns:inkscape="http://www.inkscape.org/namespaces/inkscape"
   sodipodi:docname="logo.svg"
   inkscape:version="1.0 (4035a4fb49, 2020-05-01)"
   id="svg70"
   version="1.1"
   viewBox="0 0 28.830525 8.4666663"
   height="8.4666662mm"
   width="28.830524mm">
  <defs
     id="defs64" />
  <sodipodi:namedview
     inkscape:window-maximized="1"
     inkscape:window-y="-8"
     inkscape:window-x="-8"
     inkscape:window-height="705"
     inkscape:window-width="1366"
     fit-margin-bottom="0"
     fit-margin-right="0"
     fit-margin-left="0"
     fit-margin-top="0"
     showgrid="false"
     inkscape:document-rotation="0"
     inkscape:current-layer="layer1"
     inkscape:document-units="mm"
     inkscape:cy="13.968262"
     inkscape:cx="252.5046"
     inkscape:zoom="1.4142136"
     inkscape:pageshadow="2"
     inkscape:pageopacity="0.0"
     borderopacity="1.0"
     bordercolor="#666666"
     pagecolor="#ffffff"
     id="base" />
  <metadata
     id="metadata67">
    <rdf:RDF>
      <cc:Work
         rdf:about="">
        <dc:format>image/svg+xml</dc:format>
        <dc:type
           rdf:resource="http://purl.org/dc/dcmitype/StillImage" />
        <dc:title></dc:title>
      </cc:Work>
    </rdf:RDF>
  </metadata>
  <g
     transform="translate(24.244546,-45.393017)"
     id="layer1"
     inkscape:groupmode="layer"
     inkscape:label="Layer 1">
    <g
       style="fill:#000000"
       inkscape:export-ydpi="45.110001"
       inkscape:export-xdpi="45.110001"
       transform="matrix(0.15999985,0,0,0.15999985,-26.1192,42.105934)"
       id="g477">
      <path
         style="fill:#000000;fill-opacity:1;stroke-width:0.217404"
         d="m 71.284251,28.293777 a 26.458333,26.458333 0 0 0 -7.732753,18.702287 l -0.01681,0.01681 a 26.458333,26.458333 0 0 0 0.01569,0.01428 26.458333,26.458333 0 0 0 7.733848,18.684384 26.458333,26.458333 0 0 0 37.417724,0 l -0.004,-0.0044 a 26.458333,26.458333 0 0 0 7.76089,-18.697541 l -10.5833,3.67e-4 a 15.875,15.875 0 0 1 -4.65675,11.218011 15.875,15.875 0 0 1 -22.450638,0 15.875,15.875 0 0 1 -3.051884,-4.326426 26.458333,26.458333 0 0 0 6.527642,0.844824 v 0.0058 a 26.458333,26.458333 0 0 0 26.45842,-26.458423 26.458333,26.458333 0 0 0 -37.417724,-6e-6 z m 7.483546,7.483545 a 15.875,15.875 0 0 1 18.641994,-2.792074 15.875,15.875 0 0 1 -15.165871,11.18366 15.875,15.875 0 0 1 -7.41083,-1.841289 15.875,15.875 0 0 1 3.934707,-6.550297 z"
         id="path18-6-3"
         inkscape:connector-curvature="0" />
      <path
         style="opacity:1;fill:#000000;fill-opacity:1;stroke-width:0.183153"
         d="m 149.58402,20.544335 a 26.458333,26.458333 0 0 0 -21.16718,10.629325 26.458333,26.458333 0 0 0 -2.4474,-2.879926 l -7.48326,7.483779 a 15.875,15.875 0 0 1 4.63951,11.225154 V 73.461 h 10.58333 V 47.002667 a 15.875,15.875 0 0 1 15.875,-15.875 15.875,15.875 0 0 1 15.875,15.875 h 0.006 a 26.458333,26.458333 0 0 0 7.73338,18.708936 l 7.48326,-7.483782 a 15.875,15.875 0 0 1 -4.6395,-11.225154 26.458333,26.458333 0 0 0 -26.45834,-26.458332 z m 23.61458,45.167268 a 26.458333,26.458333 0 0 0 18.70894,7.733379 V 62.867848 A 15.875,15.875 0 0 1 180.68238,58.22834 Z"
         id="rect35-7-6"
         inkscape:connector-curvature="0" />
      <path
         style="opacity:1;fill:#000000;fill-opacity:1;stroke-width:0.183153"
         d="m 42.411882,20.547436 a 26.458333,26.458333 0 0 0 -18.322397,7.746297 26.458333,26.458333 0 0 0 -2.444812,2.87631 26.458333,26.458333 0 0 0 -2.444812,-2.87631 l -7.483264,7.48378 a 15.875,15.875 0 0 1 4.63951,11.225154 V 73.461 H 26.939441 V 47.002667 h -0.0062 A 15.875,15.875 0 0 1 31.57275,35.777513 h 5.16e-4 a 15.875,15.875 0 0 1 22.450308,0 l 7.483782,-7.48378 A 26.458333,26.458333 0 0 0 42.411882,20.547436 Z"
         id="rect35-7-0"
         inkscape:connector-curvature="0" />
    </g>
  </g>
</svg>
